<svg width="32" height="32" viewBox="0 0 32 32" fill="none" xmlns="http://www.w3.org/2000/svg">
<g clip-path="url(#clip0_64_21)">
<path d="M15.9821 24.0608C11.5275 24.0608 7.90332 20.437 7.90332 15.9821C7.90332 11.5275 11.5275 7.90332 15.9821 7.90332C20.437 7.90332 24.0608 11.5275 24.0608 15.9821C24.0608 20.437 20.437 24.0608 15.9821 24.0608Z" fill="black"/>
<path d="M13.7523 6.36134C13.6498 6.36134 13.5511 6.31673 13.4836 6.23629C13.3997 6.13654 13.3779 5.9985 13.4271 5.87767L15.6568 0.394653C15.7106 0.262583 15.8391 0.175824 15.9821 0.175824C16.125 0.175824 16.2536 0.262583 16.3073 0.394653L18.5374 5.87767C18.5866 5.9985 18.5645 6.13654 18.4805 6.23629C18.3969 6.33605 18.2642 6.38171 18.137 6.35326C16.7162 6.04381 15.2469 6.04381 13.8268 6.35326C13.8022 6.35888 13.7773 6.36134 13.7523 6.36134Z" fill="black"/>
<path d="M15.9821 31.7883C15.8391 31.7883 15.7106 31.7019 15.6568 31.5695L13.4271 26.0865C13.3779 25.9656 13.3997 25.8276 13.4836 25.7279C13.5676 25.6281 13.6997 25.5831 13.8272 25.6109C15.2473 25.9207 16.7165 25.9207 18.1374 25.6109C18.2649 25.5828 18.3973 25.6284 18.4809 25.7279C18.5648 25.8273 18.587 25.9656 18.5378 26.0865L16.3077 31.5695C16.2536 31.7019 16.125 31.7883 15.9821 31.7883Z" fill="black"/>
<path d="M6.01009 18.5634C5.96548 18.5634 5.92052 18.555 5.87767 18.5378L0.394656 16.3077C0.262586 16.2536 0.175827 16.125 0.175827 15.9821C0.175827 15.8391 0.262586 15.7106 0.395007 15.6568L5.87802 13.4271C5.9985 13.3779 6.13689 13.3997 6.23665 13.4836C6.3364 13.5676 6.38136 13.7 6.35361 13.8272C6.19871 14.537 6.12003 15.2624 6.12003 15.9821C6.12003 16.7018 6.19871 17.4268 6.35361 18.1373C6.38136 18.2645 6.3364 18.3969 6.23665 18.4809C6.17202 18.5353 6.09158 18.5634 6.01009 18.5634Z" fill="black"/>
<path d="M25.9541 18.5634C25.8729 18.5634 25.7921 18.5353 25.7279 18.4809C25.6281 18.3973 25.5831 18.2648 25.6109 18.1373C25.7654 17.4271 25.8441 16.7018 25.8441 15.9821C25.8441 15.2624 25.7654 14.537 25.6109 13.8272C25.5831 13.7 25.6281 13.5676 25.7279 13.4836C25.8273 13.3997 25.9653 13.3779 26.0865 13.4271L31.5695 15.6568C31.7019 15.7106 31.7883 15.8391 31.7883 15.9821C31.7883 16.125 31.7019 16.2536 31.5695 16.3073L26.0865 18.5374C26.0436 18.5546 25.9987 18.5634 25.9541 18.5634Z" fill="black"/>
<path d="M7.35433 10.8591C7.34449 10.8591 7.33431 10.8587 7.32447 10.8577C7.19451 10.8464 7.08141 10.7643 7.03083 10.6445L4.73049 5.19062C4.67499 5.0589 4.70485 4.90681 4.80566 4.80565C4.90682 4.70449 5.05926 4.67534 5.19063 4.73048L10.6445 7.03082C10.7646 7.0814 10.8468 7.1945 10.8577 7.32411C10.8689 7.45407 10.8071 7.57947 10.6975 7.64972C10.0853 8.04277 9.51733 8.49975 9.00837 9.00836C8.49976 9.51732 8.04243 10.0853 7.64973 10.6975C7.58475 10.7987 7.47305 10.8591 7.35433 10.8591Z" fill="black"/>
<path d="M26.9102 27.2614C26.8641 27.2614 26.8178 27.2526 26.7735 27.234L21.32 24.9337C21.1999 24.8827 21.1177 24.7696 21.1068 24.64C21.0956 24.5101 21.1574 24.3847 21.267 24.3141C21.8799 23.9203 22.4482 23.463 22.9558 22.9554C23.4633 22.4482 23.9207 21.8796 24.3144 21.2666C24.385 21.157 24.5087 21.0949 24.6404 21.1065C24.77 21.1173 24.8831 21.1999 24.934 21.3197L27.2344 26.7732C27.2895 26.9049 27.26 27.0573 27.1588 27.1581C27.0914 27.2259 27.0015 27.2614 26.9102 27.2614Z" fill="black"/>
<path d="M24.6098 10.8587C24.4908 10.8587 24.3794 10.7987 24.3141 10.6975C23.9203 10.0842 23.463 9.51626 22.9555 9.00836C22.4472 8.5001 21.8789 8.04277 21.2666 7.64972C21.1567 7.57947 21.0952 7.45408 21.1065 7.32411C21.1174 7.19415 21.1999 7.0814 21.3197 7.03082L26.7732 4.73048C26.9042 4.67499 27.057 4.70449 27.1582 4.80565C27.2593 4.90681 27.2888 5.0589 27.2337 5.19062L24.9333 10.6445C24.8824 10.7646 24.7693 10.8468 24.6397 10.8577C24.6299 10.8584 24.62 10.8587 24.6098 10.8587Z" fill="black"/>
<path d="M5.05363 27.2614C4.96231 27.2614 4.87239 27.2256 4.8053 27.1585C4.70414 27.0573 4.67428 26.9052 4.73013 26.7735L7.03047 21.32C7.08105 21.1999 7.19415 21.1177 7.32376 21.1068C7.45372 21.0917 7.57912 21.1574 7.64937 21.267C8.04242 21.8789 8.49975 22.4472 9.008 22.9558C9.51591 23.4637 10.0839 23.9207 10.6972 24.3144C10.8068 24.385 10.8686 24.5104 10.8573 24.6404C10.8461 24.77 10.7639 24.8831 10.6441 24.934L5.19027 27.2344C5.14601 27.2526 5.1 27.2614 5.05363 27.2614Z" fill="black"/>
</g>
<defs>
<clipPath id="clip0_64_21">
<rect width="32" height="32" fill="white"/>
</clipPath>
</defs>
</svg>



<svg width="27" height="32" viewBox="0 0 27 32" fill="none" xmlns="http://www.w3.org/2000/svg">
<path fill-rule="evenodd" clip-rule="evenodd" d="M4.48315 32C3.62002 32 2.91027 31.3193 2.87415 30.4568L1.80052 7.79219H22.1998L21.6847 18.6674L17.7555 22.5748V13.4217C17.7555 13.0605 17.4625 12.7676 17.1014 12.7676H16.0552C15.6939 12.7676 15.401 13.0605 15.401 13.4217V23.6011L13.1773 21.5484V13.4217C13.1773 13.0605 12.8843 12.7676 12.5233 12.7676H11.4771C11.1158 12.7676 10.823 13.0605 10.823 13.4217V19.7468C10.7262 19.794 10.6223 19.8784 10.5 20L8.59922 21.9008V13.4217C8.59922 13.0605 8.30631 12.7676 7.94517 12.7676H6.89888C6.53766 12.7676 6.24483 13.0605 6.24483 13.4217V26.3705C6.24483 26.7319 6.53774 27.0246 6.89888 27.0246H7.94517C8.30639 27.0246 8.59922 26.7317 8.59922 26.3705V24.0867L10.823 26.2639V26.3705C10.823 26.7319 11.1159 27.0246 11.4771 27.0246H11.6L15.3595 30.7053C15.756 31.0982 16.4017 31.0982 16.8026 30.7053L21.3277 26.2037L21.1262 30.4568C21.0901 31.3193 20.3803 32 19.5172 32H4.48315Z" fill="black"/>
<path d="M22.9147 1.64848H15.9789V0.337248C15.9789 0.151037 15.828 0 15.6417 0H8.35848C8.17227 0 8.02131 0.151037 8.02131 0.337248V1.6484H1.08552C0.527357 1.6484 0.0749512 2.10089 0.0749512 2.65905V5.83388H23.9252V2.65913C23.9252 2.10096 23.4728 1.64848 22.9147 1.64848Z" fill="black"/>
<path d="M25.2925 17.2031C25.0181 16.9323 24.568 16.9323 24.2935 17.2031L15.9832 25.3708L11.7035 21.1347C11.429 20.8628 10.9819 20.8628 10.7054 21.1347L9.20586 22.6079C8.93138 22.8767 8.93138 23.3192 9.20586 23.59L15.4797 29.7984C15.7542 30.0672 16.2012 30.0672 16.4787 29.7984L26.7911 19.6595C27.0696 19.3886 27.0696 18.9452 26.7911 18.6734L25.2925 17.2031Z" fill="black"/>
</svg>
